<svg xmlns="http://www.w3.org/2000/svg" viewBox="0 0 256 256">
  <defs>
    <linearGradient id="a" x1="98.031%" x2="58.888%" y1="0.161%" y2="40.766%">
      <stop offset="18%" stop-color="#0052CC"/>
      <stop offset="100%" stop-color="#2684FF"/>
    </linearGradient>
    <linearGradient id="b" x1="100.665%" x2="55.402%" y1="0.455%" y2="44.727%">
      <stop offset="18%" stop-color="#0052CC"/>
      <stop offset="100%" stop-color="#2684FF"/>
    </linearGradient>
  </defs>
  <path fill="#2684FF" d="M244.658 0H121.707a55.502 55.502 0 0 0 55.502 55.502h22.649V77.37c.02 30.625 24.841 55.447 55.466 55.502V11.564C255.324 5.179 250.044 0 244.658 0z"/>
  <path fill="url(#a)" d="M183.822 61.262H60.872c.019 30.625 24.84 55.447 55.466 55.502h22.649v21.868c.02 30.597 24.798 55.408 55.395 55.502V72.826c0-6.386-5.236-11.564-10.56-11.564z"/>
  <path fill="url(#b)" d="M122.943 122.524H0c0 30.653 24.86 55.502 55.502 55.502h22.72v21.868c.02 30.597 24.798 55.408 55.395 55.502V134.089c0-6.386-5.28-11.565-10.674-11.565z"/>
</svg>
